<?xml version="1.0" encoding="utf-8"?>
<!-- Generator: Adobe Illustrator 21.0.0, SVG Export Plug-In . SVG Version: 6.00 Build 0)  -->
<svg version="1.1" id="Layer_1" xmlns="http://www.w3.org/2000/svg" xmlns:xlink="http://www.w3.org/1999/xlink" x="0px" y="0px"
	 viewBox="0 0 32 32" style="enable-background:new 0 0 32 32;" xml:space="preserve">
<style type="text/css">
	.st0{fill:none;}
	.st1{fill:#1A1A1A;}
</style>
<title>B5D39A59-4BB8-4B6B-AC90-BF1707B6E455</title>
<desc>Created with sketchtool.</desc>
<g id="Symbols">
	<g id="ic-toolbar-_x2F_-ict_x5F_linetool-locker">
		<g id="ic-toolbar-_x2F_-ict_x5F_linetool">
			<polygon id="Shape" class="st0" points="0,0 32,0 32,32 0,32 			"/>
			<path id="Rectangle-3" class="st1" d="M5.2,23.2L25,3.4c0.4-0.4,1-0.4,1.4,0l0,0c0.4,0.4,0.4,1,0,1.4L6.6,24.6
				c-0.4,0.4-1,0.4-1.4,0l0,0C4.8,24.2,4.8,23.6,5.2,23.2z"/>
			<path id="Rectangle-3-Copy" class="st1" d="M4.1,17.7h24c0.6,0,1,0.4,1,1l0,0c0,0.6-0.4,1-1,1h-24c-0.6,0-1-0.4-1-1l0,0
				C3.1,18.2,3.5,17.7,4.1,17.7z"/>
		</g>
	</g>
</g>
</svg>
