<svg xmlns="http://www.w3.org/2000/svg" width="32" height="32" viewBox="0 0 32 32">
    <path fill="#1A1A1A" fill-rule="evenodd" d="M16.92 26.63l-2.67-6.432-3.704 3.983a.651.651 0 0 1-.69.164.59.59 0 0 1-.405-.55L10 7.587c0-.233.146-.444.372-.538a.657.657 0 0 1 .674.103l13.2 10.323a.563.563 0 0 1 .162.648.628.628 0 0 1-.582.376H18.5l2.707 6.515c.128.303-.028.645-.35.766l-3.124 1.177a.67.67 0 0 1-.232.042.63.63 0 0 1-.582-.37zm-2.866-7.864a.538.538 0 0 1 .485-.16.519.519 0 0 1 .4.302l2.816 6.777.127.054 1.965-.74.057-.132-2.817-6.777a.46.46 0 0 1 .052-.451.538.538 0 0 1 .436-.218h4.633l.065-.176L11.315 8.84l-.165.076-.55 13.31.174.069 3.28-3.528z"/>
</svg>
