<?xml version="1.0" encoding="UTF-8"?>
<svg width="36px" height="36px" viewBox="0 0 36 36" version="1.1" xmlns="http://www.w3.org/2000/svg" xmlns:xlink="http://www.w3.org/1999/xlink">
    <!-- Generator: sketchtool 46.1 (44463) - http://www.bohemiancoding.com/sketch -->
    <title>7DCD8C7F-818F-4C72-8014-16DAD4A0C395</title>
    <desc>Created with sketchtool.</desc>
    <defs>
        <polygon id="path-1" points="36 36 0 36 0 0 36 0"></polygon>
    </defs>
    <g id="Symbols" stroke="none" stroke-width="1" fill="none" fill-rule="evenodd">
        <g id="ic-toolbar-/-ict_text">
            <g id="ic-toolbar-/-text">
                <mask id="mask-2" fill="white">
                    <use xlink:href="#path-1"></use>
                </mask>
                <g id="a"></g>
                <path d="M20.243,26 L18.668,26 C18.4859991,26 18.3390006,25.9545005 18.227,25.8635 C18.1149994,25.7724995 18.0310003,25.6570007 17.975,25.517 L16.568,21.884 L9.8165,21.884 L8.4095,25.517 C8.36049975,25.6430006 8.27650059,25.7549995 8.1575,25.853 C8.0384994,25.9510005 7.89150088,26 7.7165,26 L6.1415,26 L12.158,10.9535 L14.2265,10.9535 L20.243,26 Z M10.3835,20.414 L16.001,20.414 L13.6385,14.2925 C13.4844992,13.9144981 13.3340007,13.4420028 13.187,12.875 C13.1099996,13.1620014 13.0347504,13.4262488 12.96125,13.66775 C12.8877496,13.9092512 12.8160003,14.1209991 12.746,14.303 L10.3835,20.414 Z M29.6615,26 L28.832,26 C28.6499991,26 28.5030006,25.9720003 28.391,25.916 C28.2789994,25.8599997 28.2055002,25.7410009 28.1705,25.559 L27.9605,24.572 C27.6804986,24.8240013 27.4075013,25.049749 27.1415,25.24925 C26.8754987,25.448751 26.5955015,25.6167493 26.3015,25.75325 C26.0074985,25.8897507 25.6942517,25.9929997 25.36175,26.063 C25.0292483,26.1330003 24.660002,26.168 24.254,26.168 C23.8409979,26.168 23.4542518,26.1102506 23.09375,25.99475 C22.7332482,25.8792494 22.4200013,25.7060012 22.154,25.475 C21.8879987,25.2439988 21.6762508,24.9517518 21.51875,24.59825 C21.3612492,24.2447482 21.2825,23.8265024 21.2825,23.3435 C21.2825,22.9234979 21.3979988,22.5192519 21.629,22.13075 C21.8600012,21.7422481 22.2327474,21.3975015 22.74725,21.0965 C23.2617526,20.7954985 23.9354958,20.548751 24.7685,20.35625 C25.6015042,20.163749 26.619994,20.0535001 27.824,20.0255 L27.824,19.196 C27.824,18.3699959 27.6472518,17.7452521 27.29375,17.32175 C26.9402482,16.8982479 26.4170035,16.6865 25.724,16.6865 C25.2689977,16.6865 24.8857516,16.7442494 24.57425,16.85975 C24.2627484,16.9752506 23.9932511,17.1047493 23.76575,17.24825 C23.5382489,17.3917507 23.3422508,17.5212494 23.17775,17.63675 C23.0132492,17.7522506 22.8505008,17.81 22.6895,17.81 C22.5634994,17.81 22.4532505,17.7767503 22.35875,17.71025 C22.2642495,17.6437497 22.1890003,17.5615005 22.133,17.4635 L21.797,16.865 C22.3850029,16.2979972 23.0184966,15.8745014 23.6975,15.5945 C24.3765034,15.3144986 25.1289959,15.1745 25.955,15.1745 C26.550003,15.1745 27.0784977,15.272499 27.5405,15.4685 C28.0025023,15.664501 28.3909984,15.9374983 28.706,16.2875 C29.0210016,16.6375017 29.2589992,17.0609975 29.42,17.558 C29.5810008,18.0550025 29.6615,18.600997 29.6615,19.196 L29.6615,26 Z M24.8105,24.8555 C25.1395016,24.8555 25.4404986,24.8222503 25.7135,24.75575 C25.9865014,24.6892497 26.2437488,24.5947506 26.48525,24.47225 C26.7267512,24.3497494 26.9577489,24.2010009 27.17825,24.026 C27.3987511,23.8509991 27.613999,23.6515011 27.824,23.4275 L27.824,21.212 C26.9629957,21.2400001 26.231503,21.3082495 25.6295,21.41675 C25.027497,21.5252505 24.5375019,21.6669991 24.1595,21.842 C23.7814981,22.0170009 23.5067509,22.2234988 23.33525,22.4615 C23.1637491,22.6995012 23.078,22.9654985 23.078,23.2595 C23.078,23.5395014 23.1234995,23.780999 23.2145,23.984 C23.3055005,24.187001 23.4279992,24.3532494 23.582,24.48275 C23.7360008,24.6122506 23.917999,24.7067497 24.128,24.76625 C24.3380011,24.8257503 24.5654988,24.8555 24.8105,24.8555 Z" id="Aa" fill="#1A1A1A" mask="url(#mask-2)"></path>
            </g>
        </g>
    </g>
</svg>