<svg xmlns="http://www.w3.org/2000/svg" width="32" height="32" viewBox="0 0 32 32">
    <g fill="none" fill-rule="evenodd">
        <path fill="#1A1A1A" d="M15.75 23.814H5.2v-.942l8.402-8.315.071.075 5.606 5.547c.024.024.05.047.075.07l-3.603 3.565zm12.074-8.733a.605.605 0 0 0-.849 0l-4.303 4.258a1.817 1.817 0 0 1-2.545 0l-5.607-5.546a1.762 1.762 0 0 1-.524-1.262c0-.478.186-.925.524-1.26l4.304-4.258a.59.59 0 0 0 0-.84.605.605 0 0 0-.849 0l-4.303 4.258a2.936 2.936 0 0 0-.876 2.1c0 .339.058.669.166.979l-8.787 8.695a.59.59 0 0 0-.175.42v1.781c0 .328.269.594.6.594H16c.16 0 .312-.063.425-.172l3.986-3.946c.315.108.647.164.989.164.803 0 1.556-.308 2.122-.867l4.304-4.257a.593.593 0 0 0 0-.841h-.002z"/>
        <circle cx="8.5" cy="23.5" r="2.5"/>
        <circle cx="16" cy="16" r="1"/>
        <circle cx="8.5" cy="8.5" r="2.5"/>
    </g>
</svg>
