<?xml version="1.0" encoding="UTF-8"?>
<svg width="32px" height="32px" viewBox="0 0 32 32" version="1.1" xmlns="http://www.w3.org/2000/svg" xmlns:xlink="http://www.w3.org/1999/xlink">
    <!-- Generator: sketchtool 46.1 (44463) - http://www.bohemiancoding.com/sketch -->
    <title>B74C3E6F-B802-4084-80C1-F258972BEB41</title>
    <desc>Created with sketchtool.</desc>
    <defs></defs>
    <g id="Symbols" stroke="none" stroke-width="1" fill="none" fill-rule="evenodd">
        <g id="ic-toolbar-/-ict_scissors">
            <g>
                <polygon id="Shape" fill-opacity="0.2" fill="#FF0000" opacity="0" points="0 0 32 0 32 32 0 32"></polygon>
                <path d="M14.5007,18.001 C14.3687,18.001 14.2407,17.948 14.1477,17.854 C14.0547,17.76 14.0007,17.632 14.0007,17.501 C14.0007,17.37 14.0537,17.24 14.1477,17.148 C14.2407,17.055 14.3697,17.001 14.5007,17.001 C14.6317,17.001 14.7617,17.054 14.8537,17.148 C14.9467,17.241 15.0007,17.37 15.0007,17.501 C15.0007,17.632 14.9477,17.762 14.8537,17.854 C14.7607,17.947 14.6317,18.001 14.5007,18.001" id="Fill-1" fill="#1A1A1A"></path>
                <path d="M24.9894,23.4287 C24.9334,24.0297 24.6694,24.5067 24.2474,24.7747 C24.0094,24.9247 23.7344,25.0007 23.4314,25.0007 C22.6584,25.0007 21.8264,24.5027 21.2654,23.7177 L21.0904,23.4487 C20.7354,22.8457 20.5724,22.1837 20.6304,21.5697 C20.6864,20.9687 20.9504,20.4907 21.3724,20.2237 C21.6104,20.0737 21.8854,19.9967 22.1884,19.9967 C23.0164,19.9967 23.9114,20.5677 24.4694,21.4497 C24.8664,22.0777 25.0514,22.7807 24.9904,23.4287 L24.9894,23.4287 Z M14.5004,19.0007 C14.1414,19.0007 13.6734,18.7057 13.5184,18.3827 L9.1024,9.1857 C8.9394,8.8457 8.9754,8.2457 9.1794,7.9287 L9.5024,7.4237 L17.0104,18.9977 L14.4994,19.0007 L14.5004,19.0007 Z M25.3134,20.9157 C24.5654,19.7337 23.3674,18.9967 22.1874,18.9967 C21.6994,18.9967 21.2324,19.1287 20.8364,19.3787 C20.2044,19.7787 19.7934,20.4367 19.6624,21.2477 L18.3544,19.2327 C18.3514,19.2277 18.3484,19.2227 18.3464,19.2187 L9.9194,6.2287 C9.8274,6.0867 9.6694,6.0007 9.5004,6.0007 L9.4994,6.0007 C9.3294,6.0017 9.1714,6.0877 9.0794,6.2317 L8.3374,7.3887 C7.9444,8.0027 7.8854,8.9607 8.2014,9.6187 L12.6174,18.8167 C12.9364,19.4817 13.7634,20.0007 14.5014,20.0007 L17.6604,19.9977 L20.2384,23.9727 C20.2604,24.0097 20.2824,24.0467 20.3054,24.0827 C21.0534,25.2657 22.2514,26.0017 23.4314,26.0017 C23.9194,26.0017 24.3864,25.8697 24.7814,25.6197 C25.4714,25.1837 25.8984,24.4397 25.9844,23.5237 C26.0654,22.6567 25.8274,21.7297 25.3134,20.9157 L25.3134,20.9157 Z" id="Fill-3" fill="#1A1A1A"></path>
                <path d="M19.5007,17.918 C19.4277,17.918 19.3547,17.902 19.2847,17.869 C19.0357,17.749 18.9307,17.451 19.0507,17.202 L22.8987,9.186 C23.0617,8.846 23.0257,8.246 22.8217,7.929 L22.4987,7.424 L17.9207,14.481 C17.7707,14.713 17.4607,14.779 17.2287,14.628 C16.9967,14.477 16.9307,14.168 17.0817,13.936 L22.0817,6.228 C22.1737,6.086 22.3317,6 22.5007,6 L22.5017,6 C22.6717,6.001 22.8297,6.087 22.9217,6.23 L23.6637,7.388 C24.0567,8.002 24.1157,8.96 23.7997,9.618 L19.9517,17.634 C19.8657,17.813 19.6867,17.918 19.5007,17.918" id="Fill-5" fill="#1A1A1A"></path>
                <path d="M7.7535,24.774 C7.3315,24.507 7.0675,24.03 7.0115,23.429 C6.9505,22.78 7.1355,22.078 7.5325,21.45 C8.0905,20.567 8.9855,19.997 9.8135,19.997 C10.1165,19.997 10.3915,20.073 10.6295,20.224 C11.0515,20.491 11.3155,20.968 11.3715,21.569 C11.4295,22.183 11.2655,22.846 10.9115,23.447 L10.7365,23.717 C10.1755,24.502 9.3435,25 8.5705,25 C8.2665,25.001 7.9915,24.925 7.7535,24.774 Z M13,21.082 C12.768,20.932 12.5015,20.998 12.3505,21.229 L12.3375,21.249 C12.2065,20.437 11.7955,19.779 11.1635,19.38 C10.7685,19.13 10.3015,18.998 9.8125,18.998 C8.6325,18.998 7.4345,19.733 6.6865,20.917 C6.1725,21.73 5.9335,22.656 6.0155,23.524 C6.1015,24.44 6.5285,25.184 7.2185,25.621 C7.6135,25.871 8.0805,26.003 8.5685,26.003 C9.7485,26.003 10.9465,25.268 11.6945,24.084 C11.7175,24.048 11.7395,24.011 11.7615,23.974 L13.1885,21.774 C13.3385,21.542 13.2725,21.233 13.0415,21.082 L13,21.082 Z" id="Fill-7" fill="#1A1A1A"></path>
            </g>
        </g>
    </g>
</svg>